<?xml version="1.0" encoding="utf-8"?>
<!-- Generator: Adobe Illustrator 19.0.0, SVG Export Plug-In . SVG Version: 6.00 Build 0)  -->
<svg version="1.1" id="Layer_1" xmlns="http://www.w3.org/2000/svg" xmlns:xlink="http://www.w3.org/1999/xlink" x="0px" y="0px"
	 viewBox="-291 387 20 20" style="enable-background:new -291 387 20 20;" xml:space="preserve">
<path d="M-281,387c-2.6,0-5,1-6.9,2.8V388c0-0.6-0.4-1-1-1s-1,0.4-1,1v4.5c0,0.6,0.4,1,1,1h4.5c0.6,0,1-0.4,1-1s-0.4-1-1-1h-2.4
	c3.1-3.2,8.1-3.3,11.3-0.2c3.2,3.1,3.3,8.1,0.2,11.3c-3.1,3.2-8.1,3.3-11.3,0.2c-1.6-1.5-2.5-3.6-2.5-5.8c0-0.6-0.4-1-1-1
	s-1,0.4-1,1c0,5.5,4.5,10,10,10s10-4.5,10-10S-275.5,387-281,387z M-281,393c-0.6,0-1,0.4-1,1v3c0,0.6,0.4,1,1,1h2c0.6,0,1-0.4,1-1
	s-0.4-1-1-1h-1v-2C-280,393.4-280.4,393-281,393z"/>
</svg>
